<svg width="27" height="28" viewBox="0 0 27 28" fill="none" xmlns="http://www.w3.org/2000/svg">
<path fill-rule="evenodd" clip-rule="evenodd" d="M9.00122 0.172461C7.14555 0.509835 2.24367 2.27664 1.06593 3.03224C0.0653773 3.67446 0 4.03554 0 8.93769C0 14.5132 0.397001 16.2521 2.33084 19.1486C3.49958 20.8991 9.25988 25.7135 12.2308 27.4231C13.5738 28.1959 13.6885 28.195 14.6848 27.4041L15.7294 26.5741L13.1944 24.917C9.52992 22.5219 5.71814 19.025 4.17941 16.6462C2.9344 14.7223 2.84249 14.2497 2.84249 9.76579V4.95147L4.87819 4.06807C5.99765 3.58199 8.42182 2.94023 10.2652 2.64189C14.0983 2.02058 18.6842 2.58102 22.1899 4.09827L24.2455 4.98771L24.0849 10.053C23.9257 15.075 23.9087 15.1396 22.0781 17.7452C21.0628 19.1904 19.6397 20.7862 18.9163 21.2913L17.6007 22.2105L14.6194 19.9967C10.6195 17.0263 8.05941 13.6767 8.05609 11.4094C8.05419 10.177 8.3157 9.54552 8.96995 9.2021C10.2893 8.5097 10.6608 8.58684 12.2265 9.87918C13.4928 10.9243 13.6899 10.9647 14.2565 10.2955C15.8099 8.45951 18.5458 8.59845 19.1754 10.5456C19.554 11.7148 18.2829 14.6559 16.6982 16.2791C15.4982 17.5077 15.4802 17.5984 16.2851 18.3702C17.0862 19.1384 17.2264 19.0701 19.2143 16.9338C21.8265 14.1266 22.5779 11.7464 21.5863 9.41865C20.663 7.25081 18.3961 6.23776 15.9521 6.8995C15.014 7.15369 14.1134 7.57285 13.9505 7.83169C13.7539 8.14397 13.4454 8.13143 13.0319 7.79498C10.8379 6.00913 7.0868 6.51101 5.90764 8.74855C4.31964 11.7598 5.66461 15.2037 10.0084 19.2476C12.2478 21.3332 17.4131 24.9857 18.1218 24.9857C19.1508 24.9857 24.8391 19.0227 25.8799 16.8534C26.8511 14.8292 26.9951 13.8287 26.9989 9.08035C27.0041 2.82545 27.1306 3.02248 22.0042 1.25894C19.2403 0.307689 11.7139 -0.321054 9.00122 0.172461Z" fill="url(#paint0_linear_646_1418)"/>
<defs>
<linearGradient id="paint0_linear_646_1418" x1="26.5198" y1="3.20286e-06" x2="-5.32321" y2="10.9175" gradientUnits="userSpaceOnUse">
<stop stop-color="#F25195"/>
<stop offset="1" stop-color="#FFB655"/>
</linearGradient>
</defs>
</svg>
