<svg width="723" height="681" viewBox="0 0 723 681" fill="none" xmlns="http://www.w3.org/2000/svg">
<mask id="mask0_386_10343" style="mask-type:alpha" maskUnits="userSpaceOnUse" x="0" y="0" width="723" height="681">
<rect width="722.273" height="681" fill="url(#paint0_linear_386_10343)"/>
</mask>
<g mask="url(#mask0_386_10343)">
<path d="M754.966 398.128C737.219 397.625 719.349 394.193 701.771 395.815C684.193 397.437 666.062 405.412 658.871 421.341C652.608 435.209 655.984 452.226 663.591 466.109C684.352 504.128 737.741 520.386 773.667 499.68C787.625 491.636 799.086 478.972 814.716 474.67C834.58 469.192 857.214 478.356 876.677 471.737C895.745 465.259 906.535 445.314 911.362 425.613C915.312 409.509 916.318 392.089 910.764 376.009C906.956 364.977 899.248 354.238 888.188 350.684C873.111 345.838 858.107 355.649 847.24 366.371C821.234 392.054 792.831 399.198 754.966 398.128Z" stroke="#71C8F4" stroke-width="0.5" stroke-miterlimit="10"/>
<path d="M922.19 421.472C926.32 404.787 927.103 386.676 921.16 370.081C917.084 358.705 909.05 347.75 897.642 343.84C881.642 338.343 865.395 347.279 853.194 357.628C845.582 364.146 837.331 369.885 828.552 374.769C824.363 377.081 820.113 379.148 815.805 380.972C797.238 388.891 777.053 390.752 753.448 389.881C745.442 389.589 737.294 388.925 729.291 388.533C718.258 387.957 706.211 388.211 697.158 390.949C695.721 391.381 694.358 391.818 693.007 392.294C691.065 392.991 689.158 393.778 687.131 394.663C681.152 397.231 675.321 400.108 669.662 403.284C659.908 408.931 651.532 417.081 648.084 427.797C643.14 443.119 647.846 460.391 656.946 474.172C663.158 483.517 671.207 491.531 680.563 497.687C690.224 504.077 701.123 508.502 712.555 511.57C734.325 517.404 757.732 517.318 777.053 507.543C792.005 499.999 804.665 487.637 821.18 483.04C842.219 477.161 865.878 485.278 884.872 476.281C892.261 472.797 897.851 466.924 903.009 460.259C911.619 449.111 918.662 435.585 922.19 421.472Z" stroke="#71C8F4" stroke-width="0.5" stroke-miterlimit="10"/>
<path d="M933.019 417.321C937.366 400.056 937.901 381.252 931.557 364.155C927.207 352.429 918.859 341.245 907.102 336.98C890.173 330.837 872.677 338.905 859.143 348.88C850.61 355.199 841.606 360.872 832.201 365.856C827.673 368.248 823.116 370.434 818.529 372.413C798.479 381.199 777.016 382.721 751.898 381.677C742.646 381.274 733.095 380.594 723.846 380.36C711.304 380.073 696.74 381.354 687.991 386.376C686.615 387.169 685.376 387.946 684.174 388.776C682.459 389.976 680.805 391.256 678.899 392.644C673.832 396.358 666.981 400.392 660.438 404.623C649.632 411.697 640.13 421.551 637.247 434.265C633.468 450.924 639.639 468.548 650.245 482.251C657.49 491.527 666.487 499.297 676.677 505.079C687.238 511.113 698.936 514.881 711.204 517.906C734.586 523.677 759.443 524.703 780.44 515.358C796.406 508.271 810.289 496.226 827.746 491.293C849.961 485.015 874.68 491.904 893.194 480.735C900.811 476.135 905.969 468.807 911.33 460.999C920.203 447.968 929.01 433.283 933.019 417.321Z" stroke="#71C8F4" stroke-width="0.5" stroke-miterlimit="10"/>
<path d="M943.86 413.169C948.387 395.311 948.668 375.808 941.953 358.215C937.335 346.146 928.655 334.739 916.562 330.119C898.685 323.335 879.966 330.487 865.084 340.125C855.649 346.237 845.887 351.85 835.838 356.941C830.988 359.398 826.131 361.703 821.266 363.855C799.739 373.502 776.972 374.683 750.399 373.388C739.889 372.873 728.947 372.166 718.459 372.134C704.42 372.1 687.289 374.441 678.899 381.77C677.671 382.843 676.513 383.993 675.429 385.213C673.923 386.91 672.521 388.682 670.735 390.572C666.01 395.617 658.525 400.795 651.314 405.955C639.456 414.445 628.766 425.974 626.522 440.726C623.772 458.652 631.513 476.69 643.655 490.325C651.915 499.532 661.849 507.071 672.872 512.495C684.338 518.154 696.811 521.25 709.947 524.267C734.934 529.967 761.241 532.095 783.913 523.19C800.781 516.566 815.905 504.857 834.274 499.606C857.663 492.927 883.409 498.449 901.464 485.235C909.317 479.488 914.023 470.747 919.556 461.825C928.787 446.812 939.308 430.951 943.86 413.169Z" stroke="#71C8F4" stroke-width="0.5" stroke-miterlimit="10"/>
<path d="M954.688 409.015C959.415 390.57 959.478 370.396 952.361 352.3C947.476 339.874 938.496 328.203 926.022 323.269C907.248 315.797 887.316 322.159 871.044 331.388C860.51 337.343 849.99 342.943 839.492 348.045C834.304 350.566 829.135 352.997 823.984 355.338C800.941 365.88 776.921 366.662 748.873 365.184C737.106 364.557 724.766 363.802 713.039 363.985C697.472 364.233 677.812 367.587 669.775 377.242C668.613 378.646 667.569 380.146 666.652 381.728C665.36 383.927 664.21 386.193 662.552 388.579C658.124 394.982 650.023 401.263 642.139 407.333C629.217 417.237 617.309 430.395 615.734 447.233C613.938 466.393 623.324 484.89 637.009 498.437C646.274 507.577 657.148 514.889 669.015 519.956C681.375 525.252 694.672 527.717 708.639 530.672C735.218 536.302 762.963 539.517 787.312 531.053C805.125 524.877 821.477 513.527 840.751 507.927C865.309 500.841 892.045 504.893 909.69 489.737C917.761 482.798 922.057 472.703 927.77 462.637C937.414 445.676 949.65 428.664 954.688 409.015Z" stroke="#71C8F4" stroke-width="0.5" stroke-miterlimit="10"/>
<path d="M965.516 404.863C970.435 385.825 970.263 364.971 962.745 346.347C957.586 333.584 948.273 321.69 935.47 316.395C915.767 308.252 894.616 313.767 876.973 322.632C865.634 328.319 854.303 333.875 843.116 339.129C837.598 341.724 832.139 344.264 826.739 346.75C802.219 358.14 776.871 358.593 747.323 356.916C734.304 356.184 720.562 355.389 707.6 355.78C690.538 356.268 668.312 360.658 660.633 372.645C659.529 374.392 658.595 376.247 657.844 378.186C656.839 381.039 655.666 383.823 654.332 386.523C650.232 394.268 641.522 401.707 632.934 408.653C618.954 419.967 605.753 434.736 604.928 453.67C604.049 474.088 615.13 493.021 630.308 506.466C640.584 515.531 652.4 522.619 665.116 527.347C678.376 532.261 692.472 534.081 707.276 536.994C735.46 542.554 764.631 546.843 790.704 538.874C809.457 533.137 827.088 522.114 847.272 516.245C873.031 508.724 900.728 511.235 917.986 494.214C926.262 486.057 930.148 474.621 936.046 463.429C945.972 444.556 959.972 426.359 965.516 404.863Z" stroke="#71C8F4" stroke-width="0.5" stroke-miterlimit="10"/>
<path d="M976.374 400.73C981.468 381.104 981.078 359.566 973.159 340.427C967.733 327.319 958.1 315.19 944.935 309.564C924.317 300.739 901.947 305.431 882.933 313.895C870.782 319.307 858.653 324.821 846.77 330.233C840.926 332.905 835.145 335.556 829.47 338.208C803.472 350.472 776.865 350.531 745.836 348.665C731.565 347.802 716.426 346.973 702.219 347.571C683.622 348.347 658.848 353.755 651.546 368.057C650.504 370.15 649.686 372.357 649.105 374.641C648.358 377.993 647.38 381.279 646.18 384.475C642.404 393.556 633.071 402.127 623.797 409.971C608.759 422.706 594.246 439.116 594.185 460.123C594.111 481.741 606.96 501.153 623.718 514.55C634.992 523.538 647.746 530.397 661.316 534.769C675.444 539.317 690.359 540.462 705.987 543.358C735.77 548.84 766.367 554.191 794.134 546.708C813.814 541.423 832.723 530.739 853.812 524.557C880.72 516.659 909.285 517.567 926.231 498.723C934.688 489.322 938.152 476.556 944.265 464.247C954.551 443.354 970.289 424.046 976.374 400.73Z" stroke="#71C8F4" stroke-width="0.5" stroke-miterlimit="10"/>
<path d="M987.184 396.558C992.465 376.331 991.852 354.115 983.537 334.48C977.843 321.016 967.891 308.64 954.384 302.677C932.849 293.17 909.254 297.046 888.895 305.097C875.931 310.234 862.999 315.711 850.426 321.275C844.25 324.018 838.16 326.792 832.22 329.601C804.732 342.737 776.829 342.413 744.325 340.363C728.796 339.388 712.285 338.514 696.813 339.325C676.732 340.342 649.392 346.773 642.443 363.425C641.459 365.872 640.752 368.434 640.336 371.065C639.7 374.748 639.306 378.491 638.005 382.378C634.55 392.807 624.596 402.511 614.63 411.257C598.534 425.4 582.653 443.442 583.411 466.531C584.155 489.363 598.798 509.268 617.118 522.536C629.386 531.441 643.076 538.076 657.499 542.109C672.52 546.332 688.189 546.872 704.692 549.703C736.08 555.115 768.091 561.515 797.57 554.526C818.203 549.632 838.328 539.319 860.353 532.846C888.429 524.553 917.864 523.808 934.514 503.2C943.134 492.534 946.219 478.472 952.529 465.026C963.165 442.232 980.606 421.734 987.184 396.558Z" stroke="#71C8F4" stroke-width="0.5" stroke-miterlimit="10"/>
<path d="M998.011 392.404C1003.48 371.584 1002.64 348.695 993.932 328.539C987.964 314.737 977.699 302.108 963.836 295.821C941.38 285.624 916.572 288.684 894.847 296.391C881.065 301.259 867.335 306.693 854.067 312.416C847.558 315.229 841.185 318.123 834.948 321.097C805.946 335.067 776.79 334.393 742.78 332.138C725.993 331.039 708.066 330.148 691.367 331.149C669.746 332.448 639.846 339.908 633.293 358.87C632.37 361.67 631.779 364.584 631.533 367.553C631.112 371.738 630.97 375.975 629.79 380.364C626.658 392.128 616.07 402.914 605.442 412.633C588.282 428.167 570.983 447.824 572.616 473.031C574.146 497.08 590.589 517.46 610.42 530.67C623.684 539.491 638.312 545.904 653.597 549.598C669.55 553.398 686.044 553.27 703.389 556.078C736.352 561.386 769.777 568.822 800.981 562.352C822.554 557.861 843.962 547.956 866.861 541.15C896.119 532.451 926.366 530.055 942.771 507.685C951.547 495.761 954.252 480.415 960.767 465.84C971.724 441.047 990.922 419.421 998.011 392.404Z" stroke="#71C8F4" stroke-width="0.5" stroke-miterlimit="10"/>
<path d="M1008.83 388.207C1014.48 366.799 1013.42 343.219 1004.3 322.56C998.076 308.409 987.491 295.532 973.279 288.914C949.901 278.029 923.867 280.285 900.753 287.571C886.153 292.169 871.625 297.56 857.668 303.423C850.821 306.309 844.144 309.321 837.638 312.46C807.176 327.335 776.711 326.252 741.238 323.84C723.193 322.616 703.869 321.703 685.943 322.92C662.826 324.446 630.365 332.936 624.164 354.261C623.307 357.416 622.833 360.682 622.751 363.987C622.539 368.669 622.655 373.404 621.59 378.289C618.786 391.396 607.576 403.364 596.251 413.917C578.027 430.865 559.34 452.195 561.811 479.443C564.115 504.759 582.401 525.647 603.725 538.755C617.977 547.494 633.546 553.682 649.698 557.026C666.557 560.476 683.844 559.684 702.033 562.444C736.618 567.714 771.464 576.18 804.373 570.222C826.862 566.145 849.547 556.616 873.351 549.497C903.784 540.398 934.833 536.313 951.011 512.214C959.907 498.966 962.288 482.36 968.981 466.665C980.315 439.898 1001.23 417.115 1008.83 388.207Z" stroke="#71C8F4" stroke-width="0.5" stroke-miterlimit="10"/>
<path d="M1019.68 384.1C1025.51 362.098 1024.23 337.846 1014.73 316.672C1008.22 302.171 997.318 289.047 982.751 282.104C958.463 270.53 931.211 271.977 906.713 278.86C891.266 283.23 876.114 288.471 861.328 294.559C854.156 297.515 847.148 300.65 840.362 303.926C808.41 319.661 776.662 318.195 739.701 315.611C720.41 314.263 699.678 313.278 680.518 314.716C655.874 316.486 620.84 326.042 615.041 349.672C614.248 353.19 613.888 356.812 613.969 360.46C613.977 365.638 614.34 370.859 613.408 376.248C610.914 390.689 599.094 403.803 587.071 415.252C567.789 433.608 547.665 456.584 551.031 485.907C554.078 512.431 574.176 533.745 597.094 546.757C612.337 555.435 628.854 561.419 645.887 564.435C663.652 567.51 681.738 566.073 700.77 568.798C736.96 573.998 773.202 583.467 807.841 578.048C831.226 574.364 855.184 565.205 879.905 557.774C911.53 548.295 943.332 542.505 959.301 516.671C968.285 502.154 970.368 484.264 977.284 467.409C988.899 438.742 1011.54 414.796 1019.68 384.1Z" stroke="#71C8F4" stroke-width="0.5" stroke-miterlimit="10"/>
<path d="M1030.48 379.97C1036.5 357.381 1034.99 332.439 1025.1 310.755C1018.32 295.916 1007.1 282.527 992.187 275.266C966.964 263.002 938.505 263.652 912.636 270.134C896.37 274.228 880.445 279.413 864.965 285.656C857.46 288.682 850.151 291.935 843.117 295.4C809.676 312.007 776.637 310.151 738.201 307.397C717.647 305.918 695.523 304.905 675.105 306.562C648.945 308.59 611.37 319.158 605.923 345.139C605.199 349.01 604.951 352.978 605.186 356.956C605.415 362.644 606.03 368.358 605.212 374.242C603.047 390.025 590.607 404.222 577.897 416.618C557.502 436.348 535.965 461.02 540.249 492.395C544.033 520.171 565.988 541.946 590.461 554.87C606.677 563.444 624.12 569.184 642.007 571.833C660.665 574.544 679.557 572.457 699.432 575.146C737.228 580.263 774.866 590.748 811.228 585.861C835.579 582.582 860.788 573.834 886.438 566.118C919.227 556.212 951.766 548.779 967.584 521.197C976.656 505.385 978.44 486.223 985.516 468.266C997.49 437.591 1021.86 412.489 1030.48 379.97Z" stroke="#71C8F4" stroke-width="0.5" stroke-miterlimit="10"/>
<path d="M1041.34 375.787C1047.54 352.604 1045.77 327.019 1035.52 304.804C1028.47 289.609 1016.94 275.967 1001.64 268.36C975.522 255.384 945.831 255.261 918.585 261.335C901.496 265.171 884.781 270.31 868.584 276.708C860.753 279.812 853.129 283.18 845.824 286.807C810.905 304.288 776.576 302.043 736.659 299.11C714.852 297.513 691.313 296.446 669.668 298.331C641.999 300.624 601.838 312.233 596.758 340.489C596.111 344.75 596.004 349.102 596.441 353.443C596.878 359.626 597.751 365.84 597.055 372.226C595.206 389.351 582.118 404.703 568.747 417.972C547.294 439.111 524.289 465.446 529.5 498.867C534.025 527.901 557.861 550.162 583.847 562.954C601.044 571.447 619.427 576.967 638.189 579.272C657.747 581.602 677.431 578.862 698.156 581.523C737.55 586.564 776.603 598.047 814.683 593.71C839.968 590.815 866.442 582.467 892.979 574.418C926.887 564.09 960.159 554.969 975.805 525.68C984.96 508.567 986.445 488.147 993.717 469.065C1006.07 436.434 1032.17 410.17 1041.34 375.787Z" stroke="#71C8F4" stroke-width="0.5" stroke-miterlimit="10"/>
<path d="M1052.18 371.641C1058.55 347.857 1056.59 321.576 1045.94 298.89C1038.62 283.357 1026.78 269.456 1011.15 261.552C984.059 247.82 953.179 246.933 924.531 252.623C906.632 256.195 889.137 261.286 872.23 267.843C864.067 271.017 856.141 274.502 848.565 278.292C812.156 296.645 776.55 293.999 735.176 290.878C712.106 289.15 687.188 288.081 664.291 290.154C635.101 292.699 592.386 305.318 587.701 335.96C587.089 340.558 587.06 345.243 587.613 349.905C588.271 356.585 589.371 363.315 588.821 370.168C587.301 388.634 573.585 405.125 559.522 419.297C536.98 441.874 512.519 469.846 518.667 505.327C523.916 535.612 549.591 558.287 577.144 571.019C595.321 579.428 614.645 584.725 634.282 586.681C654.752 588.642 675.224 585.256 696.785 587.875C737.784 592.845 778.277 605.353 818.043 601.547C844.263 599.034 872.001 591.087 899.443 582.725C934.569 572.006 968.511 561.243 984.074 530.166C993.287 511.751 994.497 490.073 1001.97 469.855C1014.66 435.284 1042.48 407.863 1052.18 371.641Z" stroke="#71C8F4" stroke-width="0.5" stroke-miterlimit="10"/>
<path d="M1063.01 367.488C1069.54 343.128 1067.4 316.128 1056.3 292.93C1048.72 277.047 1036.57 262.887 1020.57 254.663C992.641 240.292 960.498 238.598 930.51 243.857C911.803 247.165 893.522 252.209 875.898 258.924C867.397 262.162 859.169 265.776 851.321 269.729C813.428 288.948 776.526 285.918 733.639 282.649C709.329 280.791 683.008 279.695 658.865 281.975C628.16 284.79 582.872 298.438 578.577 331.396C578.043 336.345 578.139 341.373 578.862 346.36C579.734 353.543 581.106 360.736 580.651 368.114C579.454 387.929 565.146 405.586 550.374 420.615C526.804 444.622 500.812 474.251 507.906 511.774C513.878 543.322 541.408 566.457 570.524 579.072C589.683 587.416 609.953 592.505 630.476 594.122C651.803 595.679 673.092 591.632 695.497 594.214C738.095 599.12 779.985 612.569 821.48 609.364C848.628 607.229 877.631 599.694 905.984 591.014C942.279 579.888 976.935 567.43 992.358 534.642C1001.63 514.936 1002.58 491.997 1010.23 470.64C1023.25 434.128 1052.7 405.539 1063.01 367.488Z" stroke="#71C8F4" stroke-width="0.5" stroke-miterlimit="10"/>
<path d="M1073.84 363.33C1080.53 338.348 1078.18 310.709 1066.71 286.997C1058.87 270.764 1046.38 256.35 1030.03 247.802C1001.19 232.723 967.816 230.25 936.452 235.101C916.942 238.143 897.874 243.134 879.528 250.002C870.823 253.256 862.319 256.982 854.052 261.163C814.663 281.248 776.483 277.83 732.108 274.389C706.541 272.407 678.822 271.288 653.44 273.771C621.225 276.837 573.372 291.521 569.447 326.811C568.982 332.12 569.194 337.499 570.08 342.82C571.16 350.498 572.79 358.19 572.456 366.071C571.581 387.221 556.621 405.977 541.188 421.943C516.542 447.325 489.062 478.659 497.118 518.23C503.795 551.059 533.208 574.619 563.866 587.134C583.994 595.382 605.195 600.241 626.584 601.506C648.841 602.728 670.93 598.035 694.183 600.577C738.38 605.406 781.672 619.865 824.923 617.175C852.999 615.416 883.305 608.26 912.524 599.302C949.975 587.806 985.307 573.662 1000.63 539.142C1009.94 518.132 1010.64 493.924 1018.48 471.454C1031.84 432.978 1063.02 403.208 1073.84 363.33Z" stroke="#71C8F4" stroke-width="0.5" stroke-miterlimit="10"/>
<path d="M1084.67 359.183C1091.54 333.608 1088.97 305.29 1077.09 281.062C1068.96 264.51 1056.2 249.8 1039.49 240.94C1009.74 225.16 975.134 221.915 942.4 226.352C922.094 229.125 902.242 234.064 883.176 241.087C874.15 244.408 865.342 248.247 856.795 252.586C815.921 273.55 776.458 269.737 730.608 266.125C703.777 264.011 674.667 262.865 648.039 265.555C614.309 268.892 563.821 284.588 560.348 322.223C559.947 327.89 560.272 333.62 561.315 339.274C562.617 347.449 564.499 355.634 564.286 364.005C563.733 386.503 548.171 406.374 532.032 423.253C506.335 450.039 477.335 483.081 486.356 524.664C493.749 558.762 525.031 582.782 557.233 595.186C578.327 603.355 600.461 607.994 622.721 608.911C645.896 609.784 668.792 604.403 692.857 606.925C738.659 611.684 783.366 627.129 828.302 625.019C857.3 623.631 888.839 616.941 919.026 607.637C957.671 595.711 993.673 579.9 1008.88 543.621C1018.23 521.313 1018.66 495.849 1026.72 472.244C1040.42 431.821 1073.33 400.901 1084.67 359.183Z" stroke="#71C8F4" stroke-width="0.5" stroke-miterlimit="10"/>
<path d="M1095.51 355.026C1102.56 328.868 1099.76 299.86 1087.5 275.13C1079.11 258.21 1066.03 243.278 1048.95 234.085C1018.28 217.593 982.46 213.575 948.342 217.597C927.244 220.103 906.607 224.995 886.82 232.179C877.457 235.574 868.333 239.539 859.495 244.051C817.131 265.887 776.386 261.591 729.059 257.908C700.977 255.614 670.463 254.502 642.595 257.394C607.357 260.983 554.302 277.714 551.207 317.677C550.71 323.758 551.432 329.73 552.514 335.777C554.03 344.455 556.164 353.132 556.073 362.005C555.836 385.832 539.633 406.866 522.827 424.625C496.054 452.787 465.547 487.537 475.531 531.182C483.635 566.555 516.792 591.005 550.55 603.31C572.621 611.398 595.698 615.812 618.841 616.373C642.903 616.863 666.578 610.867 691.524 613.331C738.932 618.02 785.06 634.445 831.701 632.897C861.665 631.901 894.463 625.554 925.536 615.943C965.368 603.618 1002.03 586.139 1017.15 548.115C1026.52 524.508 1026.72 497.777 1034.92 473.013C1049.01 430.672 1083.67 398.56 1095.51 355.026Z" stroke="#71C8F4" stroke-width="0.5" stroke-miterlimit="10"/>
<path d="M1106.34 350.873C1113.57 324.116 1110.56 294.435 1097.89 269.19C1089.24 251.926 1075.8 236.682 1058.38 227.253C1026.83 210.036 989.766 205.251 954.29 208.848C932.395 211.091 910.965 215.934 890.444 223.275C880.764 226.739 871.341 230.824 862.231 235.505C818.378 258.201 776.349 253.522 727.528 249.66C698.194 247.236 666.284 246.09 637.195 249.166C600.416 253.048 544.82 270.792 542.09 313.081C541.654 319.511 542.543 325.869 543.744 332.224C545.469 341.398 547.837 350.548 547.884 359.944C547.976 385.113 531.151 407.279 513.673 425.923C485.866 455.508 453.81 491.934 464.782 537.591C473.603 574.246 508.636 599.139 543.912 611.354C566.957 619.36 590.975 623.551 614.998 623.76C639.96 623.881 664.435 617.24 690.23 619.664C739.23 624.281 786.786 641.693 835.132 640.707C866.043 640.045 900.061 634.189 932.045 624.26C973.045 611.54 1010.36 592.394 1025.4 552.62C1034.8 527.714 1034.75 499.721 1043.17 473.846C1057.6 429.515 1093.96 396.277 1106.34 350.873Z" stroke="#71C8F4" stroke-width="0.5" stroke-miterlimit="10"/>
<path d="M1117.18 346.739C1124.58 319.274 1121.41 289.528 1108.3 263.269C1099.38 245.674 1085.66 230.192 1067.89 220.364C1035.41 202.451 997.128 196.899 960.269 200.094C937.59 202.068 915.376 206.856 894.129 214.35C884.126 217.88 874.397 222.08 865.006 226.923C819.668 250.498 776.374 245.456 726.046 241.391C695.455 238.841 662.147 237.674 631.794 240.975C593.537 245.093 535.349 263.883 533.003 308.493C532.629 315.283 533.655 321.97 535.017 328.718C536.968 338.383 539.6 348.051 539.757 357.924C540.165 384.434 522.712 407.726 504.535 427.291C475.677 458.279 442.076 496.411 454.044 544.089C463.538 581.99 500.469 607.415 537.328 619.434C561.334 627.362 586.286 631.32 611.18 631.15C637.036 630.895 662.322 623.609 688.954 625.991C739.553 630.531 788.537 648.93 838.586 648.518C870.407 648.251 905.715 642.785 938.604 632.542C980.754 619.433 1018.7 598.617 1033.7 557.077C1043.12 530.866 1042.84 501.619 1051.47 474.627C1066.19 428.365 1104.27 393.957 1117.18 346.739Z" stroke="#71C8F4" stroke-width="0.5" stroke-miterlimit="10"/>
<path d="M1128.01 342.568C1135.55 314.497 1132.23 284.093 1118.69 257.323C1109.49 239.364 1095.46 223.63 1077.32 213.507C1043.94 194.875 1004.4 188.655 966.173 191.336C942.706 193.06 919.699 197.795 897.709 205.425C887.38 209.023 877.345 213.343 867.674 218.354C820.847 242.789 776.25 237.356 724.459 233.121C692.616 230.454 657.905 229.27 626.318 232.768C586.534 237.142 525.798 256.963 523.817 303.9C523.505 311.038 524.654 318.09 526.147 325.134C528.319 335.309 531.21 345.464 531.463 355.824C532.199 383.677 514.118 408.107 495.262 428.563C465.352 460.954 430.207 500.793 443.164 550.484C453.373 589.729 492.156 615.544 530.596 627.441C555.584 635.312 581.491 639.062 607.281 638.54C634.042 637.923 660.134 629.962 687.59 632.325C739.794 636.796 790.206 656.169 841.954 656.324C877.149 656.298 911.899 651.092 945.099 640.872C988.443 627.345 1027.06 604.88 1041.93 561.587C1051.38 534.089 1050.87 503.569 1059.7 475.466C1074.77 427.209 1114.58 391.651 1128.01 342.568Z" stroke="#71C8F4" stroke-width="0.5" stroke-miterlimit="10"/>
<path d="M1138.83 338.414C1146.53 309.736 1143.05 278.668 1129.08 251.388C1119.61 233.073 1105.28 217.086 1086.8 206.684C1052.52 187.345 1011.77 180.31 972.164 182.62C947.917 184.084 924.125 188.772 901.407 196.563C890.757 200.23 880.419 204.67 870.472 209.848C822.155 235.156 776.255 229.358 723.002 224.928C689.883 222.116 653.799 220.912 620.96 224.623C579.686 229.27 516.365 250.118 514.755 299.376C514.498 306.868 515.784 314.273 517.432 321.654C519.813 332.324 522.936 342.989 523.347 353.855C524.381 383.066 505.71 408.6 486.155 429.964C455.149 463.799 418.498 505.322 432.444 557.013C443.383 597.528 484.091 623.79 524.005 635.576C549.959 643.363 576.8 646.897 603.467 646.036C631.098 645.016 657.996 636.391 686.295 638.732C740.11 643.126 791.913 663.446 845.383 664.196C879.073 664.671 916.928 660.063 951.614 649.182C996.109 635.216 1035.39 611.14 1050.2 566.079C1059.65 537.288 1058.88 505.481 1067.92 476.253C1083.36 426.058 1124.89 389.331 1138.83 338.414Z" stroke="#71C8F4" stroke-width="0.5" stroke-miterlimit="10"/>
<path d="M1149.67 334.268C1157.52 304.977 1153.87 273.243 1139.47 245.448C1129.74 226.802 1115.11 210.513 1096.24 199.789C1061.07 179.689 1019.06 171.928 978.082 173.838C953.052 175.025 928.469 179.662 905.02 187.621C894.039 191.361 883.388 195.927 873.154 201.279C823.353 227.453 776.182 221.249 721.448 216.641C687.102 213.725 649.603 212.467 615.518 216.386C572.71 221.283 506.847 243.168 505.615 294.753C505.419 302.606 506.829 310.352 508.626 318.086C511.228 329.253 514.622 340.394 515.129 351.772C516.517 382.303 497.192 408.998 476.939 431.271C444.875 466.514 406.674 509.724 421.633 563.443C433.264 605.251 475.836 631.891 517.318 643.617C544.238 651.303 572.011 654.605 599.552 653.393C628.143 652.059 655.815 642.812 685.007 645.121C740.42 649.438 793.639 670.731 848.826 672.057C883.451 672.903 922.552 668.688 958.123 657.549C1003.84 643.137 1043.73 617.408 1058.46 570.572C1067.93 540.486 1066.96 507.427 1076.17 477.049C1091.94 424.901 1135.2 387.025 1149.67 334.268Z" stroke="#71C8F4" stroke-width="0.5" stroke-miterlimit="10"/>
<path d="M1160.5 330.108C1168.49 300.21 1164.69 267.819 1149.87 239.513C1139.84 220.491 1124.92 203.981 1105.66 192.906C1069.61 172.132 1026.36 163.579 984.029 165.088C958.222 166.005 932.851 170.59 908.668 178.705C897.382 182.514 886.441 187.192 875.941 192.698C824.656 219.751 776.195 213.17 719.954 208.395C684.374 205.381 645.453 204.075 610.136 208.19C565.825 213.345 497.389 236.272 496.521 290.184C496.387 298.385 497.934 306.483 499.88 314.56C502.696 326.229 506.343 337.863 506.983 349.744C508.687 381.616 488.734 409.45 467.814 432.602C434.686 469.26 394.94 514.177 410.895 569.903C423.236 613.01 467.697 640.057 510.722 651.683C538.616 659.312 567.337 662.406 595.769 660.847C625.224 659.116 653.694 649.224 683.718 651.459C740.73 655.712 795.379 677.892 852.262 679.873C887.823 681.04 928.175 677.287 964.695 665.807C1011.52 651.059 1052.04 623.661 1066.72 575.064C1076.2 543.685 1075.01 509.354 1084.41 477.85C1100.53 423.75 1145.51 384.711 1160.5 330.108Z" stroke="#71C8F4" stroke-width="0.5" stroke-miterlimit="10"/>
<path d="M912.304 169.791C900.681 173.665 889.423 178.464 878.634 184.144C825.859 212.057 776.12 205.099 718.398 200.146C681.529 196.988 641.242 195.668 604.654 199.964C558.815 205.389 487.826 229.339 487.342 285.572C487.158 306.483 497.445 326.73 498.72 347.666C500.747 380.874 480.178 409.847 458.547 433.931C424.355 471.991 383.071 518.609 400.021 576.355C413.059 620.749 459.415 648.208 503.983 659.747C532.844 667.286 562.502 670.158 591.814 668.254C622.18 666.154 651.45 655.605 682.317 657.817C740.953 662.007 797.041 685.187 855.624 687.686C938.999 691.269 1048.99 669.162 1074.98 579.564C1084.46 546.884 1083.06 511.288 1092.65 478.659C1109.1 422.619 1155.82 382.399 1171.31 325.979C1185.34 274.949 1163.38 214.123 1115.14 186.109C1055.48 151.407 976.337 148.317 912.304 169.791Z" stroke="#71C8F4" stroke-width="0.5" stroke-miterlimit="10"/>
</g>
<defs>
<linearGradient id="paint0_linear_386_10343" x1="0" y1="0" x2="722.273" y2="681" gradientUnits="userSpaceOnUse">
<stop stop-color="#576ADD"/>
<stop offset="1" stop-color="#4BA0D4"/>
</linearGradient>
</defs>
</svg>
