<svg width="434" height="660" viewBox="0 0 434 660" fill="none" xmlns="http://www.w3.org/2000/svg">
<path d="M465.685 385.852C448.485 385.364 431.166 382.038 414.13 383.61C397.094 385.182 379.522 392.911 372.554 408.349C366.484 421.789 369.755 438.282 377.128 451.737C397.248 488.583 448.991 504.341 483.809 484.273C497.337 476.476 508.444 464.203 523.592 460.034C542.844 454.725 564.78 463.606 583.643 457.191C602.122 450.913 612.58 431.583 617.258 412.49C621.086 396.883 622.061 379.999 616.679 364.415C612.988 353.724 605.518 343.316 594.799 339.871C580.187 335.175 565.645 344.683 555.114 355.075C529.91 379.965 502.383 386.89 465.685 385.852Z" stroke="#71C8F4" stroke-width="0.5" stroke-miterlimit="10"/>
<path d="M627.753 408.476C631.755 392.305 632.514 374.752 626.755 358.669C622.804 347.644 615.018 337.027 603.961 333.237C588.455 327.909 572.709 336.571 560.884 346.6C553.507 352.917 545.51 358.48 537.002 363.213C532.942 365.453 528.824 367.457 524.648 369.224C506.654 376.899 487.091 378.702 464.214 377.858C456.455 377.576 448.559 376.932 440.802 376.553C430.109 375.994 418.433 376.24 409.66 378.894C408.267 379.312 406.946 379.736 405.637 380.197C403.754 380.872 401.907 381.635 399.942 382.493C394.148 384.982 388.497 387.77 383.011 390.848C373.558 396.321 365.441 404.219 362.099 414.606C357.307 429.455 361.868 446.195 370.688 459.55C376.708 468.607 384.509 476.374 393.577 482.34C402.94 488.533 413.503 492.822 424.582 495.795C445.681 501.449 468.366 501.365 487.091 491.892C501.582 484.581 513.851 472.6 529.857 468.145C550.248 462.447 573.177 470.313 591.585 461.594C598.747 458.217 604.165 452.526 609.163 446.066C617.508 435.262 624.333 422.153 627.753 408.476Z" stroke="#71C8F4" stroke-width="0.5" stroke-miterlimit="10"/>
<path d="M638.247 404.45C642.46 387.718 642.979 369.494 636.83 352.924C632.614 341.56 624.524 330.721 613.13 326.587C596.723 320.633 579.766 328.453 566.649 338.12C558.379 344.245 549.653 349.743 540.538 354.573C536.15 356.891 531.733 359.009 527.288 360.928C507.856 369.443 487.055 370.918 462.711 369.905C453.745 369.515 444.488 368.856 435.525 368.63C423.37 368.352 409.255 369.593 400.775 374.46C399.442 375.228 398.241 375.981 397.076 376.786C395.414 377.949 393.81 379.19 391.963 380.535C387.053 384.134 380.413 388.044 374.072 392.144C363.599 399.001 354.39 408.551 351.596 420.872C347.933 437.018 353.914 454.098 364.193 467.379C371.215 476.368 379.935 483.899 389.81 489.503C400.045 495.35 411.383 499.002 423.273 501.934C445.934 507.527 470.023 508.522 490.373 499.464C505.847 492.596 519.301 480.922 536.221 476.142C557.75 470.057 581.708 476.734 599.65 465.909C607.032 461.451 612.031 454.349 617.227 446.781C625.827 434.153 634.362 419.92 638.247 404.45Z" stroke="#71C8F4" stroke-width="0.5" stroke-miterlimit="10"/>
<path d="M648.754 400.429C653.142 383.121 653.414 364.219 646.906 347.169C642.431 335.472 634.018 324.417 622.298 319.94C604.973 313.365 586.831 320.296 572.407 329.637C563.263 335.561 553.803 341 544.063 345.935C539.362 348.316 534.655 350.55 529.941 352.635C509.077 361.985 487.012 363.13 461.259 361.874C451.073 361.375 440.468 360.69 430.304 360.659C416.698 360.626 400.095 362.895 391.964 369.998C390.774 371.038 389.651 372.152 388.601 373.335C387.141 374.979 385.782 376.697 384.052 378.529C379.472 383.418 372.217 388.436 365.229 393.437C353.737 401.666 343.377 412.839 341.202 427.136C338.536 444.509 346.039 461.991 357.807 475.205C365.811 484.128 375.439 491.435 386.122 496.692C397.235 502.176 409.323 505.177 422.054 508.1C446.27 513.625 471.766 515.687 493.74 507.057C510.088 500.638 524.745 489.289 542.547 484.2C565.215 477.727 590.167 483.079 607.665 470.273C615.276 464.703 619.837 456.231 625.199 447.584C634.146 433.034 644.343 417.662 648.754 400.429Z" stroke="#71C8F4" stroke-width="0.5" stroke-miterlimit="10"/>
<path d="M659.248 396.402C663.829 378.526 663.89 358.973 656.993 341.435C652.259 329.393 643.555 318.082 631.467 313.3C613.272 306.058 593.954 312.224 578.184 321.168C567.975 326.94 557.779 332.367 547.605 337.311C542.577 339.755 537.567 342.111 532.574 344.38C510.242 354.597 486.964 355.355 459.78 353.922C448.375 353.314 436.417 352.583 425.051 352.76C409.964 353 390.911 356.251 383.121 365.608C381.995 366.969 380.983 368.423 380.095 369.956C378.842 372.087 377.728 374.283 376.121 376.596C371.829 382.801 363.978 388.888 356.337 394.771C343.814 404.37 332.273 417.122 330.747 433.44C329.006 452.01 338.103 469.936 351.366 483.066C360.345 491.924 370.884 499.01 382.385 503.922C394.363 509.054 407.25 511.443 420.786 514.307C446.546 519.763 473.436 522.879 497.033 514.677C514.298 508.69 530.145 497.691 548.825 492.263C572.626 485.396 598.538 489.323 615.638 474.634C623.46 467.909 627.624 458.125 633.16 448.369C642.507 431.932 654.365 415.445 659.248 396.402Z" stroke="#71C8F4" stroke-width="0.5" stroke-miterlimit="10"/>
<path d="M669.742 392.378C674.509 373.927 674.342 353.716 667.056 335.667C662.056 323.297 653.03 311.769 640.622 306.638C621.527 298.746 601.029 304.091 583.93 312.683C572.94 318.194 561.958 323.579 551.116 328.671C545.768 331.185 540.478 333.647 535.245 336.057C511.481 347.096 486.915 347.535 458.278 345.91C445.66 345.2 432.341 344.43 419.78 344.808C403.243 345.282 381.702 349.536 374.26 361.153C373.19 362.847 372.286 364.645 371.558 366.524C370.584 369.289 369.447 371.986 368.154 374.603C364.181 382.109 355.739 389.319 347.415 396.051C333.867 407.016 321.073 421.33 320.274 439.68C319.422 459.469 330.161 477.817 344.871 490.847C354.83 499.633 366.281 506.503 378.605 511.085C391.456 515.847 405.117 517.611 419.465 520.435C446.78 525.822 475.051 529.979 500.321 522.256C518.496 516.697 535.582 506.013 555.144 500.325C580.109 493.036 606.951 495.47 623.678 478.974C631.698 471.069 635.465 459.984 641.18 449.138C650.801 430.847 664.369 413.211 669.742 392.378Z" stroke="#71C8F4" stroke-width="0.5" stroke-miterlimit="10"/>
<path d="M680.266 388.374C685.202 369.353 684.825 348.479 677.15 329.93C671.891 317.227 662.555 305.472 649.796 300.019C629.813 291.467 608.133 296.014 589.706 304.217C577.929 309.462 566.175 314.806 554.658 320.051C548.994 322.64 543.391 325.21 537.891 327.78C512.695 339.666 486.909 339.723 456.837 337.914C443.005 337.078 428.333 336.274 414.564 336.855C396.541 337.607 372.531 342.847 365.454 356.709C364.444 358.737 363.651 360.876 363.088 363.09C362.364 366.339 361.417 369.523 360.254 372.621C356.593 381.421 347.549 389.728 338.561 397.33C323.987 409.672 309.921 425.577 309.862 445.935C309.79 466.887 322.243 485.7 338.484 498.685C349.41 507.395 361.771 514.042 374.923 518.279C388.615 522.688 403.07 523.797 418.216 526.603C447.081 531.917 476.734 537.103 503.645 529.851C522.718 524.729 541.044 514.374 561.483 508.383C587.561 500.728 615.245 501.608 631.669 483.346C639.865 474.235 643.222 461.861 649.147 449.933C659.115 429.684 674.368 410.971 680.266 388.374Z" stroke="#71C8F4" stroke-width="0.5" stroke-miterlimit="10"/>
<path d="M690.742 384.329C695.86 364.727 695.266 343.196 687.207 324.166C681.689 311.117 672.044 299.123 658.953 293.344C638.083 284.13 615.215 287.886 595.484 295.69C582.92 300.668 570.386 305.976 558.202 311.369C552.216 314.027 546.314 316.715 540.557 319.438C513.917 332.169 486.874 331.854 455.372 329.867C440.322 328.922 424.32 328.075 409.325 328.861C389.864 329.847 363.367 336.079 356.632 352.219C355.678 354.59 354.993 357.073 354.59 359.623C353.974 363.192 353.592 366.82 352.331 370.587C348.983 380.694 339.336 390.099 329.677 398.575C314.077 412.283 298.686 429.768 299.42 452.145C300.142 474.273 314.333 493.564 332.088 506.423C343.978 515.054 357.245 521.484 371.224 525.392C385.782 529.485 400.968 530.009 416.961 532.752C447.382 537.998 478.406 544.2 506.976 537.426C526.972 532.683 546.476 522.689 567.822 516.415C595.033 508.378 623.56 507.656 639.697 487.683C648.05 477.346 651.04 463.717 657.156 450.687C667.464 428.595 684.367 408.73 690.742 384.329Z" stroke="#71C8F4" stroke-width="0.5" stroke-miterlimit="10"/>
<path d="M701.236 380.303C706.541 360.126 705.724 337.943 697.283 318.408C691.499 305.032 681.55 292.792 668.115 286.699C646.351 276.817 622.308 279.782 601.253 287.252C587.896 291.969 574.589 297.236 561.73 302.782C555.422 305.509 549.246 308.313 543.201 311.196C515.094 324.734 486.837 324.081 453.875 321.896C437.606 320.83 420.232 319.967 404.048 320.938C383.093 322.196 354.115 329.426 347.764 347.804C346.87 350.517 346.297 353.341 346.059 356.219C345.65 360.275 345.513 364.381 344.369 368.635C341.334 380.036 331.073 390.489 320.772 399.909C304.142 414.963 287.376 434.014 288.958 458.444C290.442 481.752 306.377 501.503 325.597 514.306C338.452 522.855 352.629 529.07 367.443 532.65C382.904 536.333 398.889 536.209 415.699 538.93C447.646 544.075 480.04 551.281 510.281 545.011C531.189 540.659 551.937 531.059 574.13 524.462C602.485 516.032 631.8 513.71 647.7 492.029C656.205 480.473 658.827 465.601 665.14 451.475C675.759 427.447 694.365 406.487 701.236 380.303Z" stroke="#71C8F4" stroke-width="0.5" stroke-miterlimit="10"/>
<path d="M711.726 376.236C717.199 355.488 716.166 332.636 707.335 312.613C701.298 298.899 691.04 286.419 677.266 280.005C654.609 269.455 629.378 271.642 606.976 278.703C592.827 283.16 578.747 288.385 565.22 294.066C558.584 296.863 552.113 299.783 545.807 302.825C516.285 317.241 486.76 316.191 452.381 313.854C434.892 312.667 416.164 311.783 398.791 312.962C376.386 314.441 344.927 322.669 338.917 343.337C338.086 346.395 337.626 349.559 337.548 352.763C337.341 357.3 337.455 361.89 336.422 366.624C333.705 379.326 322.84 390.925 311.864 401.153C294.202 417.578 276.092 438.251 278.487 464.658C280.72 489.194 298.441 509.438 319.108 522.141C332.921 530.611 348.009 536.608 363.664 539.849C380.002 543.192 396.756 542.425 414.384 545.1C447.903 550.208 481.675 558.412 513.569 552.639C535.364 548.687 557.35 539.452 580.419 532.552C609.914 523.734 640.005 519.775 655.684 496.419C664.306 483.58 666.614 467.485 673.101 452.274C684.085 426.333 704.358 404.252 711.726 376.236Z" stroke="#71C8F4" stroke-width="0.5" stroke-miterlimit="10"/>
<path d="M722.237 372.254C727.885 350.931 726.642 327.427 717.434 306.906C711.132 292.852 700.564 280.133 686.446 273.404C662.907 262.187 636.495 263.589 612.752 270.26C597.781 274.495 583.097 279.575 568.767 285.475C561.816 288.339 555.024 291.378 548.447 294.553C517.481 309.803 486.712 308.382 450.891 305.878C432.195 304.571 412.101 303.617 393.533 305.01C369.648 306.726 335.694 315.987 330.075 338.888C329.307 342.298 328.958 345.808 329.036 349.343C329.044 354.362 329.395 359.422 328.492 364.644C326.075 378.64 314.62 391.35 302.967 402.446C284.28 420.236 264.777 442.503 268.038 470.922C270.991 496.629 290.47 517.285 312.681 529.895C327.454 538.306 343.462 544.106 359.97 547.029C377.186 550.009 394.715 548.616 413.16 551.257C448.234 556.297 483.359 565.473 516.93 560.222C539.594 556.652 562.812 547.775 586.771 540.573C617.421 531.386 648.242 525.774 663.719 500.738C672.426 486.668 674.444 469.33 681.147 452.994C692.404 425.211 714.351 402.004 722.237 372.254Z" stroke="#71C8F4" stroke-width="0.5" stroke-miterlimit="10"/>
<path d="M732.707 368.252C738.536 346.359 737.076 322.186 727.485 301.172C720.918 286.79 710.046 273.814 695.59 266.777C671.145 254.891 643.564 255.521 618.493 261.803C602.729 265.771 587.294 270.796 572.292 276.847C565.018 279.78 557.934 282.931 551.118 286.29C518.708 302.385 486.688 300.586 449.437 297.917C429.516 296.483 408.075 295.502 388.286 297.108C362.933 299.074 326.517 309.316 321.238 334.495C320.536 338.247 320.296 342.093 320.524 345.948C320.745 351.46 321.341 356.998 320.549 362.701C318.451 377.997 306.394 391.756 294.076 403.77C274.31 422.891 253.437 446.803 257.59 477.211C261.256 504.13 282.534 525.233 306.253 537.759C321.969 546.068 338.874 551.631 356.21 554.199C374.292 556.826 392.601 554.803 411.863 557.409C448.494 562.369 484.971 572.53 520.212 567.794C543.812 564.616 568.244 556.138 593.103 548.659C624.881 539.06 656.416 531.855 671.746 505.124C680.539 489.8 682.268 471.229 689.125 453.826C700.73 424.097 724.344 399.769 732.707 368.252Z" stroke="#71C8F4" stroke-width="0.5" stroke-miterlimit="10"/>
<path d="M743.233 364.2C749.237 341.732 747.523 316.935 737.586 295.406C730.759 280.679 719.584 267.458 704.754 260.086C679.44 247.51 650.664 247.39 624.258 253.277C607.696 256.995 591.497 261.976 575.799 268.176C568.209 271.184 560.821 274.448 553.741 277.964C519.899 294.905 486.629 292.73 447.942 289.888C426.808 288.34 403.995 287.306 383.017 289.132C356.201 291.355 317.279 302.605 312.355 329.991C311.728 334.12 311.625 338.338 312.048 342.545C312.472 348.537 313.318 354.559 312.643 360.749C310.851 377.345 298.167 392.224 285.209 405.084C264.417 425.572 242.121 451.094 247.171 483.485C251.557 511.624 274.658 533.198 299.842 545.595C316.509 553.826 334.326 559.176 352.509 561.41C371.463 563.668 390.541 561.013 410.626 563.591C448.806 568.477 486.655 579.606 523.561 575.403C548.066 572.597 573.723 564.507 599.442 556.706C632.304 546.696 664.55 537.856 679.714 509.47C688.586 492.885 690.025 473.095 697.074 454.602C709.049 422.977 734.337 397.523 743.233 364.2Z" stroke="#71C8F4" stroke-width="0.5" stroke-miterlimit="10"/>
<path d="M753.732 360.182C759.905 337.131 758.005 311.661 747.684 289.675C740.592 274.621 729.12 261.148 713.969 253.488C687.714 240.18 657.786 239.32 630.021 244.834C612.674 248.296 595.719 253.23 579.333 259.585C571.422 262.661 563.741 266.039 556.398 269.712C521.112 287.499 486.604 284.934 446.506 281.91C424.147 280.235 399.997 279.199 377.806 281.208C349.516 283.674 308.119 295.905 303.578 325.601C302.985 330.057 302.957 334.598 303.493 339.116C304.131 345.59 305.197 352.112 304.664 358.754C303.191 376.652 289.898 392.634 276.269 406.368C254.421 428.249 230.714 455.358 236.674 489.745C241.761 519.097 266.643 541.073 293.347 553.412C310.964 561.562 329.692 566.695 348.723 568.591C368.562 570.491 388.402 567.21 409.298 569.748C449.034 574.565 488.277 586.687 526.817 582.998C552.228 580.563 579.112 572.861 605.707 564.757C639.75 554.369 672.645 543.937 687.729 513.819C696.657 495.971 697.83 474.962 705.07 455.367C717.374 421.863 744.329 395.287 753.732 360.182Z" stroke="#71C8F4" stroke-width="0.5" stroke-miterlimit="10"/>
<path d="M764.227 356.156C770.556 332.546 768.483 306.379 757.73 283.896C750.385 268.503 738.603 254.779 723.102 246.809C696.031 232.881 664.879 231.24 635.817 236.337C617.686 239.543 599.969 244.431 582.888 250.939C574.649 254.077 566.675 257.58 559.069 261.411C522.344 280.037 486.58 277.101 445.016 273.933C421.456 272.132 395.946 271.069 372.548 273.279C342.789 276.007 298.899 289.235 294.736 321.176C294.218 325.973 294.311 330.846 295.012 335.679C295.857 342.64 297.186 349.611 296.746 356.762C295.585 375.966 281.719 393.078 267.402 407.644C244.559 430.91 219.369 459.626 226.243 495.991C232.031 526.567 258.713 548.989 286.931 561.215C305.499 569.301 325.145 574.233 345.034 575.8C365.703 577.31 386.337 573.387 408.05 575.89C449.335 580.645 489.933 593.679 530.148 590.572C556.459 588.503 584.568 581.201 612.046 572.788C647.222 562.006 680.809 549.931 695.757 518.155C704.741 499.056 705.666 476.824 713.074 456.126C725.693 420.74 754.238 393.032 764.227 356.156Z" stroke="#71C8F4" stroke-width="0.5" stroke-miterlimit="10"/>
<path d="M774.727 352.124C781.207 327.913 778.929 301.126 767.812 278.145C760.213 262.414 748.116 248.444 732.27 240.159C704.312 225.545 671.972 223.149 641.575 227.85C622.666 230.798 604.187 235.635 586.406 242.291C577.969 245.445 569.728 249.056 561.715 253.109C523.541 272.574 486.539 269.261 443.532 265.927C418.753 264.005 391.889 262.921 367.29 265.327C336.069 268.299 289.691 282.53 285.887 316.732C285.436 321.877 285.642 327.09 286.5 332.247C287.547 339.689 289.127 347.143 288.804 354.781C287.955 375.28 273.457 393.457 258.499 408.93C234.613 433.53 207.981 463.897 215.789 502.249C222.259 534.065 250.765 556.898 280.478 569.028C299.985 577.021 320.532 581.73 341.262 582.956C362.832 584.14 384.24 579.592 406.777 582.055C449.611 586.736 491.568 600.749 533.485 598.142C560.695 596.438 590.067 589.502 618.385 580.82C654.681 569.679 688.923 555.971 703.772 522.515C712.799 502.153 713.472 478.691 721.07 456.915C734.018 419.625 764.243 390.773 774.727 352.124Z" stroke="#71C8F4" stroke-width="0.5" stroke-miterlimit="10"/>
<path d="M785.227 348.107C791.882 323.32 789.387 295.876 777.881 272.395C769.998 256.353 757.629 242.097 741.438 233.51C712.599 218.217 679.064 215.072 647.339 219.372C627.66 222.059 608.42 226.846 589.942 233.653C581.194 236.871 572.658 240.592 564.374 244.797C524.761 265.115 486.515 261.419 442.079 257.918C416.075 255.87 387.863 254.759 362.056 257.366C329.366 260.6 280.435 275.812 277.069 312.287C276.68 317.778 276.995 323.332 278.006 328.812C279.268 336.735 281.092 344.667 280.886 352.78C280.35 374.584 265.267 393.843 249.626 410.202C224.721 436.161 196.616 468.184 205.359 508.485C212.524 541.531 242.841 564.811 274.05 576.832C294.494 584.75 315.945 589.246 337.519 590.134C359.979 590.98 382.168 585.765 405.491 588.21C449.881 592.822 493.21 607.791 536.76 605.745C564.864 604.4 595.43 597.916 624.686 588.899C662.139 577.341 697.032 562.018 711.769 526.858C720.834 505.237 721.253 480.558 729.055 457.681C742.337 418.505 774.235 388.539 785.227 348.107Z" stroke="#71C8F4" stroke-width="0.5" stroke-miterlimit="10"/>
<path d="M795.728 344.078C802.558 318.727 799.846 290.613 787.963 266.646C779.833 250.247 767.154 235.776 750.601 226.867C720.881 210.883 686.164 206.989 653.098 210.887C632.65 213.316 612.65 218.056 593.473 225.02C584.399 228.31 575.556 232.152 566.99 236.525C525.933 257.688 486.445 253.524 440.576 249.955C413.361 247.732 383.788 246.654 356.779 249.457C322.627 252.935 271.208 269.15 268.209 307.881C267.727 313.774 268.427 319.562 269.476 325.422C270.945 333.833 273.013 342.242 272.925 350.842C272.695 373.934 256.992 394.319 240.705 411.531C214.757 438.824 185.191 472.503 194.867 514.802C202.721 549.084 234.856 572.78 267.573 584.705C288.963 592.544 311.328 596.822 333.758 597.366C357.078 597.841 380.023 592.029 404.2 594.418C450.145 598.962 494.851 614.881 540.054 613.38C569.093 612.415 600.88 606.264 630.995 596.949C669.599 585.004 705.128 568.064 719.779 531.213C728.869 508.334 729.059 482.427 737.01 458.427C750.663 417.392 784.253 386.27 795.728 344.078Z" stroke="#71C8F4" stroke-width="0.5" stroke-miterlimit="10"/>
<path d="M806.222 340.052C813.233 314.12 810.311 285.355 798.039 260.889C789.65 244.157 776.626 229.383 759.739 220.245C729.162 203.559 693.244 198.921 658.863 202.407C637.642 204.581 616.873 209.275 596.985 216.39C587.604 219.747 578.472 223.706 569.643 228.242C527.142 250.238 486.409 245.703 439.093 241.961C410.664 239.611 379.737 238.501 351.546 241.482C315.901 245.245 262.019 262.441 259.373 303.426C258.951 309.657 259.813 315.82 260.977 321.979C262.648 330.87 264.943 339.738 264.989 348.844C265.078 373.237 248.772 394.719 231.833 412.788C204.883 441.461 173.815 476.763 184.45 521.013C192.998 556.537 226.951 580.662 261.139 592.501C283.473 600.26 306.751 604.322 330.034 604.525C354.226 604.642 377.945 598.206 402.945 600.555C450.434 605.03 496.524 621.905 543.379 620.949C573.337 620.308 606.305 614.632 637.303 605.009C677.04 592.682 713.206 574.126 727.776 535.578C736.892 511.44 736.846 484.311 745.001 459.234C758.982 416.27 794.221 384.056 806.222 340.052Z" stroke="#71C8F4" stroke-width="0.5" stroke-miterlimit="10"/>
<path d="M816.734 336.046C823.903 309.428 820.833 280.599 808.12 255.149C799.483 238.097 786.179 223.092 768.961 213.567C737.485 196.207 700.379 190.826 664.657 193.923C642.677 195.835 621.148 200.476 600.557 207.739C590.862 211.161 581.433 215.231 572.332 219.924C528.392 242.772 486.433 237.886 437.657 233.946C408.01 231.475 375.729 230.343 346.311 233.543C309.235 237.534 252.841 255.744 250.567 298.979C250.205 305.56 251.199 312.041 252.518 318.58C254.41 327.947 256.96 337.317 257.112 346.885C257.508 372.578 240.593 395.152 222.976 414.113C195.008 444.146 162.444 481.102 174.042 527.309C183.244 564.042 219.036 588.683 254.758 600.331C278.024 608.015 302.207 611.851 326.333 611.686C351.391 611.439 375.898 604.378 401.709 606.686C450.747 611.087 498.221 628.918 546.727 628.518C577.566 628.259 611.785 622.962 643.66 613.036C684.51 600.331 721.29 580.156 735.822 539.897C744.957 514.494 744.682 486.149 753.046 459.99C767.307 415.154 804.213 381.807 816.734 336.046Z" stroke="#71C8F4" stroke-width="0.5" stroke-miterlimit="10"/>
<path d="M827.222 332.003C834.534 304.799 831.313 275.332 818.189 249.387C809.276 231.983 795.68 216.733 778.099 206.922C745.748 188.865 707.428 182.837 670.379 185.435C647.636 187.106 625.339 191.695 604.027 199.09C594.017 202.577 584.29 206.763 574.918 211.62C529.534 235.301 486.313 230.037 436.119 225.932C405.259 223.347 371.617 222.2 341.005 225.589C302.447 229.829 243.585 249.038 241.664 294.528C241.362 301.446 242.476 308.281 243.923 315.108C246.028 324.968 248.829 334.81 249.074 344.851C249.788 371.845 232.264 395.522 213.99 415.347C185.002 446.739 150.941 485.349 163.498 533.508C173.393 571.543 210.98 596.562 248.234 608.092C272.451 615.72 297.56 619.354 322.554 618.849C348.491 618.251 373.778 610.535 400.388 612.826C450.981 617.158 499.839 635.934 549.991 636.085C584.1 636.06 617.779 631.014 649.956 621.109C691.963 607.999 729.386 586.227 743.801 544.269C752.961 517.619 752.463 488.04 761.018 460.803C775.626 414.034 814.206 379.573 827.222 332.003Z" stroke="#71C8F4" stroke-width="0.5" stroke-miterlimit="10"/>
<path d="M837.716 327.978C845.177 300.184 841.8 270.074 828.258 243.635C819.086 225.886 805.199 210.392 787.291 200.31C754.065 181.568 714.569 174.749 676.185 176.989C652.686 178.407 629.628 182.951 607.61 190.501C597.289 194.055 587.27 198.358 577.629 203.377C530.802 227.904 486.317 222.285 434.707 217.991C402.609 215.266 367.638 214.1 335.812 217.696C295.81 222.2 234.442 242.405 232.881 290.144C232.632 297.405 233.878 304.582 235.476 311.735C237.783 322.076 240.81 332.412 241.209 342.942C242.211 371.253 224.115 396 205.164 416.705C175.114 449.496 139.593 489.739 153.109 539.836C163.71 579.102 203.163 604.554 241.846 615.977C267 623.524 293.013 626.948 318.858 626.114C345.637 625.125 371.705 616.767 399.131 619.035C451.287 623.294 501.493 642.987 553.314 643.714C585.965 644.174 622.653 639.708 656.27 629.163C699.392 615.628 737.457 592.294 751.81 548.623C760.977 520.719 760.232 489.893 768.99 461.567C783.951 412.919 824.199 377.325 837.716 327.978Z" stroke="#71C8F4" stroke-width="0.5" stroke-miterlimit="10"/>
<path d="M848.217 323.96C855.822 295.572 852.291 264.818 838.335 237.879C828.902 219.808 814.725 204.022 796.431 193.628C762.348 174.148 721.633 166.627 681.921 168.477C657.662 169.628 633.838 174.122 611.112 181.835C600.469 185.461 590.146 189.885 580.228 195.073C531.963 220.44 486.247 214.426 433.2 209.96C399.913 207.135 363.57 205.916 330.537 209.714C289.049 214.459 225.217 235.67 224.023 285.664C223.833 293.275 225.2 300.782 226.941 308.278C229.463 319.1 232.752 329.897 233.244 340.925C234.589 370.514 215.86 396.386 196.231 417.972C165.156 452.128 128.133 494.006 142.631 546.069C153.903 586.587 195.163 612.406 235.365 623.77C261.455 631.219 288.371 634.419 315.063 633.245C342.773 631.951 369.591 622.99 397.883 625.227C451.588 629.412 503.165 650.048 556.651 651.333C590.208 652.153 628.103 648.067 662.577 637.273C706.888 623.304 745.548 598.37 759.82 552.977C768.995 523.82 768.056 491.78 776.982 462.339C792.271 411.799 834.192 375.09 848.217 323.96Z" stroke="#71C8F4" stroke-width="0.5" stroke-miterlimit="10"/>
<path d="M858.717 319.929C866.462 290.953 862.779 259.561 848.416 232.128C838.695 213.692 824.232 197.691 805.569 186.957C770.629 166.824 728.714 158.535 687.685 159.997C662.673 160.886 638.084 165.329 614.647 173.195C603.709 176.886 593.106 181.42 582.929 186.756C533.226 212.975 486.259 206.596 431.752 201.969C397.27 199.048 359.549 197.782 325.321 201.77C282.376 206.767 216.051 228.986 215.21 281.235C215.08 289.184 216.579 297.033 218.465 304.86C221.194 316.17 224.729 327.444 225.349 338.959C227.001 369.848 207.663 396.824 187.388 419.262C155.282 454.789 116.761 498.321 132.224 552.329C144.184 594.107 187.274 620.319 228.972 631.588C256.006 638.981 283.842 641.98 311.397 640.469C339.943 638.791 367.536 629.204 396.634 631.37C451.888 635.492 504.851 656.988 559.981 658.908C594.445 660.039 633.552 656.401 668.947 645.276C714.328 630.982 753.601 604.429 767.829 557.331C777.011 526.919 775.861 493.647 784.966 463.115C800.596 410.684 844.19 372.848 858.717 319.929Z" stroke="#71C8F4" stroke-width="0.5" stroke-miterlimit="10"/>
<path d="M618.172 164.555C606.907 168.309 595.996 172.96 585.539 178.465C534.392 205.517 486.187 198.774 430.245 193.974C394.513 190.913 355.468 189.634 320.009 193.797C275.583 199.055 206.783 222.267 206.314 276.766C206.136 297.031 216.105 316.654 217.341 336.945C219.305 369.128 199.37 397.208 178.406 420.55C145.269 457.436 105.258 502.616 121.685 558.582C134.322 601.606 179.248 628.219 222.441 639.402C250.413 646.708 279.156 649.492 307.564 647.647C336.994 645.611 365.362 635.388 395.276 637.531C452.104 641.593 506.463 664.058 563.239 666.479C644.043 669.952 750.645 648.527 775.833 561.692C785.015 530.019 783.66 495.521 792.957 463.899C808.903 409.587 854.177 370.607 869.187 315.927C882.785 266.47 861.502 207.52 814.748 180.369C756.932 146.738 680.229 143.743 618.172 164.555Z" stroke="#71C8F4" stroke-width="0.5" stroke-miterlimit="10"/>
</svg>
