<svg width="64" height="64" viewBox="0 0 64 64" fill="none" xmlns="http://www.w3.org/2000/svg">
<rect width="64" height="64" rx="32" fill="#DCE6F5"/>
<g clip-path="url(#clip0_386_10345)">
<path d="M33 41V43.5L30 41.5L27 43.5V41H26.5C25.5717 41 24.6815 40.6313 24.0251 39.9749C23.3687 39.3185 23 38.4283 23 37.5V25C23 24.2044 23.3161 23.4413 23.8787 22.8787C24.4413 22.3161 25.2044 22 26 22H40C40.2652 22 40.5196 22.1054 40.7071 22.2929C40.8946 22.4804 41 22.7348 41 23V40C41 40.2652 40.8946 40.5196 40.7071 40.7071C40.5196 40.8946 40.2652 41 40 41H33ZM33 39H39V36H26.5C26.1022 36 25.7206 36.158 25.4393 36.4393C25.158 36.7206 25 37.1022 25 37.5C25 37.8978 25.158 38.2794 25.4393 38.5607C25.7206 38.842 26.1022 39 26.5 39H27V37H33V39ZM39 34V24H26V34.035C26.1656 34.0115 26.3327 33.9998 26.5 34H39ZM27 25H29V27H27V25ZM27 28H29V30H27V28ZM27 31H29V33H27V31Z" fill="#576ADD"/>
</g>
<defs>
<clipPath id="clip0_386_10345">
<rect width="24" height="24" fill="white" transform="translate(20 20)"/>
</clipPath>
</defs>
</svg>
