<svg width="64" height="64" viewBox="0 0 64 64" fill="none" xmlns="http://www.w3.org/2000/svg">
<rect width="64" height="64" rx="32" fill="#DCE6F5"/>
<g clip-path="url(#clip0_386_10350)">
<path d="M25 29.0002C25.2652 29.0002 25.5196 29.1056 25.7071 29.2931C25.8946 29.4806 26 29.735 26 30.0002C27.5711 29.9979 29.097 30.5265 30.33 31.5002H32.5C33.832 31.5002 35.03 32.0792 35.853 32.9992L39 33.0002C39.9453 32.9999 40.8712 33.2676 41.6705 33.7722C42.4698 34.2769 43.1097 34.9977 43.516 35.8512C41.151 38.9722 37.322 41.0002 33 41.0002C30.21 41.0002 27.85 40.3972 25.94 39.3422C25.87 39.5353 25.7422 39.702 25.574 39.8198C25.4058 39.9376 25.2053 40.0005 25 40.0002H22C21.7348 40.0002 21.4804 39.8948 21.2929 39.7073C21.1054 39.5198 21 39.2654 21 39.0002V30.0002C21 29.735 21.1054 29.4806 21.2929 29.2931C21.4804 29.1056 21.7348 29.0002 22 29.0002H25ZM26.001 32.0002L26 37.0212L26.045 37.0542C27.84 38.3142 30.178 39.0002 33 39.0002C36.004 39.0002 38.799 37.8442 40.835 35.8702L40.968 35.7372L40.848 35.6372C40.3758 35.2674 39.8034 35.0479 39.205 35.0072L39 35.0002L36.888 34.9992C36.961 35.3212 37 35.6562 37 36.0002V37.0002H28V35.0002L34.79 34.9992L34.756 34.9212C34.5644 34.5207 34.2696 34.1785 33.9019 33.9297C33.5343 33.6808 33.107 33.5343 32.664 33.5052L32.5 33.5002H29.57C29.1053 33.0249 28.5503 32.6474 27.9375 32.3898C27.3248 32.1322 26.6667 31.9997 26.002 32.0002H26.001ZM24 31.0002H23V38.0002H24V31.0002ZM33.646 23.5752L34 23.9302L34.354 23.5762C34.5858 23.3424 34.8615 23.1567 35.1653 23.0298C35.469 22.9028 35.7949 22.8371 36.1241 22.8365C36.4533 22.8358 36.7795 22.9002 37.0837 23.0259C37.388 23.1516 37.6645 23.3361 37.8973 23.5689C38.13 23.8018 38.3145 24.0783 38.4401 24.3826C38.5657 24.6869 38.63 25.0131 38.6292 25.3423C38.6285 25.6715 38.5627 25.9973 38.4356 26.3011C38.3086 26.6048 38.1228 26.8805 37.889 27.1122L34 31.0002L30.11 27.1102C29.8762 26.8784 29.6905 26.6027 29.5636 26.2989C29.4366 25.9952 29.3709 25.6693 29.3703 25.3401C29.3696 25.0109 29.434 24.6847 29.5597 24.3805C29.6854 24.0762 29.8699 23.7997 30.1027 23.5669C30.3356 23.3342 30.6121 23.1497 30.9164 23.0241C31.2207 22.8985 31.5469 22.8342 31.8761 22.835C32.2053 22.8357 32.5311 22.9015 32.8349 23.0286C33.1386 23.1556 33.4143 23.3414 33.646 23.5752ZM31.526 24.9902C31.4431 25.0726 31.3917 25.1815 31.3808 25.2978C31.3698 25.4142 31.4 25.5308 31.466 25.6272L31.524 25.6962L34 28.1702L36.476 25.6962C36.5588 25.6135 36.61 25.5043 36.6206 25.3877C36.6312 25.2711 36.6006 25.1545 36.534 25.0582L36.476 24.9882C36.3931 24.9055 36.2839 24.8545 36.1673 24.8441C36.0507 24.8337 35.9342 24.8645 35.838 24.9312L35.768 24.9892L33.999 26.7572L32.232 24.9872L32.164 24.9312C32.0677 24.8646 31.9511 24.834 31.8345 24.8446C31.7179 24.8552 31.6087 24.9064 31.526 24.9892V24.9902Z" fill="#576ADD"/>
</g>
<defs>
<clipPath id="clip0_386_10350">
<rect width="24" height="24" fill="white" transform="translate(20 20)"/>
</clipPath>
</defs>
</svg>
