<svg width="65" height="64" viewBox="0 0 65 64" fill="none" xmlns="http://www.w3.org/2000/svg">
<rect x="0.5" width="64" height="64" rx="32" fill="#DCE6F5"/>
<g clip-path="url(#clip0_386_10355)">
<path d="M42.5 40.007C42.4982 40.2696 42.3931 40.521 42.2075 40.7068C42.0219 40.8926 41.7706 40.9979 41.508 41H23.492C23.2288 40.9997 22.9765 40.895 22.7905 40.7088C22.6045 40.5226 22.5 40.2702 22.5 40.007V39H40.5V27.3L32.5 34.5L22.5 25.5V24C22.5 23.7348 22.6054 23.4804 22.7929 23.2929C22.9804 23.1054 23.2348 23 23.5 23H41.5C41.7652 23 42.0196 23.1054 42.2071 23.2929C42.3946 23.4804 42.5 23.7348 42.5 24V40.007ZM24.934 25L32.5 31.81L40.066 25H24.934ZM20.5 35H28.5V37H20.5V35ZM20.5 30H25.5V32H20.5V30Z" fill="#576ADD"/>
</g>
<defs>
<clipPath id="clip0_386_10355">
<rect width="24" height="24" fill="white" transform="translate(20.5 20)"/>
</clipPath>
</defs>
</svg>
